<?xml version="1.0" encoding="UTF-8" standalone="no"?>
<!-- Created with Inkscape (http://www.inkscape.org/) -->

<svg
   width="1080"
   height="1080"
   viewBox="0 0 285.74999 285.75"
   version="1.1"
   id="svg1"
   inkscape:export-filename="icon.png"
   inkscape:export-xdpi="96"
   inkscape:export-ydpi="96"
   sodipodi:docname="logo.svg"
   xmlns:inkscape="http://www.inkscape.org/namespaces/inkscape"
   xmlns:sodipodi="http://sodipodi.sourceforge.net/DTD/sodipodi-0.dtd"
   xmlns="http://www.w3.org/2000/svg"
   xmlns:svg="http://www.w3.org/2000/svg">
  <sodipodi:namedview
     id="namedview1"
     pagecolor="#505050"
     bordercolor="#ffffff"
     borderopacity="1"
     inkscape:showpageshadow="0"
     inkscape:pageopacity="0"
     inkscape:pagecheckerboard="1"
     inkscape:deskcolor="#505050"
     inkscape:document-units="mm"
     showgrid="false">
    <inkscape:page
       x="0"
       y="0"
       width="285.75"
       height="285.75"
       id="page2"
       margin="0"
       bleed="0" />
  </sodipodi:namedview>
  <defs
     id="defs1" />
  <g
     id="g36"
     transform="matrix(1.2617482,0,0,1.2617482,21.502893,0.16369737)">
    <path
       id="path1"
       style="fill:#00c3ff;fill-opacity:1;stroke-width:4.29066;stroke-linecap:round;stroke-linejoin:round;stroke-miterlimit:9.8"
       d="m 110.9115,22.720507 4.7625,43.153439 v 25.568465 c 0,0 -6.82074,6.217879 -11.19673,7.686869 l -0.79479,47.83066 5.34128,60.72549 H 87.103657 l 5.34128,-60.72549 -0.79478,-47.835827 c -4.24302,-1.481531 -10.74089,-7.67967 -10.74302,-7.681702 V 65.873946 l 4.7625,-43.153439 h 2.08153 v 43.153439 h 2.82463 l 2.64584,-43.153439 h 1.552357 l 2.645833,43.153439 h 1.741496 l 2.645827,-43.153439 h 1.55236 l 2.64583,43.153439 h 2.82463 V 22.720507 Z"
       inkscape:label="path3" />
    <path
       id="rect3"
       style="fill:#ff006f;fill-opacity:1;stroke-width:4.29066;stroke-linecap:round;stroke-linejoin:round;stroke-miterlimit:9.8"
       d="m 106.7176,18.526587 4.7625,43.153439 v 25.568465 c 0,0 -6.82074,6.217879 -11.19673,7.686869 l -0.794794,47.83068 5.341284,60.72549 H 82.909737 l 5.34128,-60.72549 -0.79478,-47.835847 c -4.24302,-1.481531 -10.74089,-7.67967 -10.74302,-7.681702 V 61.680026 l 4.7625,-43.153439 h 2.08153 v 43.153439 h 2.82463 l 2.64584,-43.153439 h 1.552357 l 2.645833,43.153439 h 1.741496 l 2.645834,-43.153439 h 1.552369 l 2.645834,43.153439 h 2.82463 V 18.526587 Z"
       inkscape:label="path3" />
    <path
       id="path2"
       style="fill:#ffffff;fill-opacity:1;stroke-width:4.29066;stroke-linecap:round;stroke-linejoin:round;stroke-miterlimit:9.8"
       d="m 108.81455,20.623547 4.7625,43.153439 v 25.568465 c 0,0 -6.82074,6.217879 -11.19673,7.686869 l -0.79479,47.83067 5.34128,60.72549 H 85.006697 l 5.34128,-60.72549 -0.79478,-47.835837 c -4.24302,-1.481531 -10.74089,-7.67967 -10.74302,-7.681702 V 63.776986 l 4.7625,-43.153439 h 2.08153 v 43.153439 h 2.82463 l 2.64584,-43.153439 h 1.552357 l 2.645833,43.153439 h 1.741496 l 2.645834,-43.153439 h 1.552363 l 2.64583,43.153439 h 2.82463 V 20.623547 Z"
       inkscape:label="path3" />
  </g>
</svg>
